# xmcd
#
# Track frame offsets:
#	150
#	13085
#	23036
#	40806
#	55744
#	69163
#	86656
#	105134
#	118561
#	132888
#	146981
#	160449
#	176027
#	192796
#	201632
#	214439
#	230165
#	243421
#	256452
#	272577
#	286105
#	301063
#	318503
#	335468
#
# Disc length: 4615 seconds
# Revision: 1
# Processed by: cddbd v1.5.2PL0 Copyright (c) Steve Scherf et al.
# Submitted via: dBpowerAMP V12.0
#
DISCID=60120518
DTITLE=Johnny Cash - Complete Columbia Album Collection, Disc 63 [Singles, Plus 2]
DYEAR=2012
DGENRE=Country
TTITLE0=No Need to Worry
TTITLE1=I'll Be Loving You
TTITLE2=A Front Row Seat to Hear Ole Johnny Sing
TTITLE3=The World Needs a Melody
TTITLE4=Help Me Make it Through the Night
TTITLE5=Praise the Lord and Pass the Soup
TTITLE6=The Ballad of Barbara
TTITLE7=Pick the Wildwood Flower
TTITLE8=Diamonds in the Rough
TTITLE9=Song to Woody
TTITLE10=Hey Porter
TTITLE11=I Still Miss Someone
TTITLE12=My Ship Will Sail
TTITLE13=It's All Over
TTITLE14=Old Time Feeling
TTITLE15=Song of the Patriot
TTITLE16=I Will Dance with You
TTITLE17=The General Lee
TTITLE18=Crazy Old Soldier
TTITLE19=The Chicken in Black
TTITLE20=Battle of Nashville
TTITLE21=They Killed Him
TTITLE22=The Three Bells
TTITLE23=The Human Condition
EXTD=
EXTT0=
EXTT1=
EXTT2=
EXTT3=
EXTT4=
EXTT5=
EXTT6=
EXTT7=
EXTT8=
EXTT9=
EXTT10=
EXTT11=
EXTT12=
EXTT13=
EXTT14=
EXTT15=
EXTT16=
EXTT17=
EXTT18=
EXTT19=
EXTT20=
EXTT21=
EXTT22=
EXTT23=
PLAYORDER=
